<mxfile host="app.diagrams.net" modified="2020-09-16T14:06:27.510Z" agent="5.0 (Windows)" etag="ofv3LXvHBGaeMkwFAb1E" version="13.7.1" type="github">
  <diagram name="Page-1" id="5f0bae14-7c28-e335-631c-24af17079c00">
    <mxGraphModel dx="1422" dy="763" grid="1" gridSize="10" guides="1" tooltips="1" connect="1" arrows="1" fold="1" page="1" pageScale="1" pageWidth="1100" pageHeight="850" background="#ffffff" math="0" shadow="0">
      <root>
        <mxCell id="0" />
        <mxCell id="1" parent="0" />
        <mxCell id="cp7yZlZRyXQYfkks4cQm-13" style="edgeStyle=orthogonalEdgeStyle;rounded=0;orthogonalLoop=1;jettySize=auto;html=1;entryX=0.5;entryY=1;entryDx=0;entryDy=0;" edge="1" parent="1" source="nLoVxgrhlbPxmBjoQGfH-1" target="nLoVxgrhlbPxmBjoQGfH-2">
          <mxGeometry relative="1" as="geometry" />
        </mxCell>
        <mxCell id="nLoVxgrhlbPxmBjoQGfH-1" value="" style="rounded=0;whiteSpace=wrap;html=1;" parent="1" vertex="1">
          <mxGeometry x="160" y="480" width="760" height="190" as="geometry" />
        </mxCell>
        <mxCell id="nLoVxgrhlbPxmBjoQGfH-2" value="" style="rounded=0;whiteSpace=wrap;html=1;" parent="1" vertex="1">
          <mxGeometry x="160" y="250" width="760" height="190" as="geometry" />
        </mxCell>
        <mxCell id="nLoVxgrhlbPxmBjoQGfH-6" value="" style="shape=image;verticalLabelPosition=bottom;labelBackgroundColor=#ffffff;verticalAlign=top;aspect=fixed;imageAspect=0;image=data:image/png,iVBORw0KGgoAAAANSUhEUgAAANwAAABhCAYAAAC9Ds8qAAAgAElEQVR4nO2dd3gTR/rHN4RALgkkQBLIL4lIAXJHyl1yd0ku5S5Yl8ul3IVytNBCMSBhmnsDQg+EYst0Y4OpxlRjwJZkW5blJtmyLclFLnJRsWRpJRlyKZf2/f2xkixZK2MItkhYPc/nwdLOvPvO7Hz3nZmdHYjvvvsODAwMfQPxv//9DwwMDH0DIzgGhj6EERwDQx/CCI6BoQ8hvv32WzAwMPQNjOAYGPoQRnAMDH0I8c0334CBgaFvYATHwNCHMIJjYOhDGMExMPQhxNdffw0GBoa+gREcA0MfwgiOgaEPYQTHwNCHEF999RUYGBj6BkZwDLcVqampOHTokN/96C3ueMFZrVZUVlZCJBJBIBAgNzcXSqXS737dKRgMBpw+fRqBgYEYPXo0CIJAYGCg3/3qLYj//ve/uBPJyMjA9OnT8fTTT6Nfv34gCMLFPffcg5deegmfffYZWlpa/O7rrw21Wo0DBw7gP//5D0aMGOFR9wRBYPLkyX73sbe44wSnUqnw/vvve11kXzz++ONISUnxu9+/ZEwmE0QiEbZs2QI2m41BgwZ1W+f/+Mc//O5zb3FHCS43NxfDhw/vsdjc2bBhg9/9/6VSXFyMP/3pTz2u6zfeeMPvPvcWt73gSPs1NBjtqNFbUWuwQm2wwmS7dsN2GhoaaLsvN0JCQoLf6+OXitVqxfHjx/H222+jf//+3dbzn//8Z7/721sQX375JW4nGo02HC5uxcLUKrwRLwNrrQQPRolwf0QO7o/IwQPhOfi/zwrw0tZiTDlciW05TZBpzNe1O3nyZJ8XeNSoUXjvvfcwYcIEvPfee3j00Udp0w0YMABSqdTvdfRLJywsrFvBvfjii7h27Zrf/ewNbhvBZSgMmHqkCkNi80FEloCILgURUQQiTAIiVAwiJA9EqIOwfBDhhSCiZCCiZOgfKsKb8WXYI2lBu7XDy7ZMJvOaGHEOzvPy8mC1Wj3St7S0YP369bjvvvu88gQEBPi9rn7JXLp06bo9jZEjR6K9vd3vvvYGfhecoNqIcbvLKQFFyyhxrcy+MUJEICKLQUTJMGpzMRLymjzOERsb63VRQ0NDr+tbVlYW7QA/JyfHlUYqlWL8+PGYMGECxo8fjylTpkCj0fj9wt4K7HY7pkyZgtdee83Fvn37btreuXPn8Jvf/IZ2Yuqll15yfR86dCiamppuWTluJ4hr167BH5hIOxafUlECi5KCCM65caHR4RDuuN0VKGsy49q1a16zkqNHj8bVq1d75Of+/fu9GkhgYKDr+JkzZ7yOV1RU+KVObzVWqxWPP/64143qZmxdvnyZVmwjRoyAVCqF1WrFkiVLXL/X1NT4vfy9gV8EJ9e04+XtpSBi5FR0Wim8NWJzJ1qGIasLcbiwCS+//LLHRV6yZMkN+fvHP/7RI/+YMWNgt9tx7do1pKenexwbOHAgFAqF3y/srcBqtWLMmDEe5YuOjr5hOxkZGbj//vu9xDZkyBDk5+d7pD1z5gzGjBkDmUzm9/L3Bn0uuNyaNoxYV0KNv261yDwQUmPAFQIMHPZ/Hhc6Pj7+hnzetm2bR/57770XKpUK164xgrse6enptJFtyJAhyM3Npc2j1+vR1tbm9/L3Bn0qOIm6DUNWFVDjrRW9ENW8xna5lPCGsjwu9vjx42/I7+zsbK8Gc/nyZVeDYgRHj69u5LBhw3yK7dcOcfXqVfQFdXoST64tomYge6MLSUsOFeWefdProi9evBhGo7FHvldXV2PUqFF48sknwWKx8MQTT0AgEODq1au4cOGCV/RraWnpkzrtbUiSpBVcT/JmZWVh8ODBXvX+8MMPIy8vz+9l8xd9JriAXTIQMWW9K7blNLajpCDej6adfh47diwOHjwIkiSv67/ZbEZ7e7vrX7vdjqtXvQXXv39/rFq1CvHx8dclLi4OPB4Pra2t3Z5brSdxWWnAAUkTjpa0orDeBLPVfmPisdkhVhuxV6zB9uwG7M9vQr7aCEs3dm5WcGlpabSzu4888ggkEonfG70/6RPBbRM2OMR2i2Yi3QW2hA9iUSaIxVkgVmbjruAuaYJF1MTMiN/5fO4zduxYbNq0CTU1NTdctq6Cuxl8NcL0Ch0+PFCJwVH51PPIyGIqYgfnYtSmYkRl1KHFZO3WP6PFhrWZ9fjdFin1LDOyhHr8ElkCIkSE5z6XYkNWPa2Ab0ZwKSkptM88H374YeTn5/u9wfsboqOjA71JvcGCITGOBvNzBbbMIbDlQkpgy4UYtb4QM46okFRigKjBhqExYiqdx+RJIYj5x0DcP7Tbhj9o0CBMnToV6enpPS7f+fPnf5bY+vXrh8LCQg+bJtKGT4+pQIQXOJ5N5jkemzgIzqWOxcjBWl+CM6UttL5lV+nx289LqNng8EIqn8fNKJf6PUaOV3aUQlrf5pHfYrF4CS4qKspnXRw6dIhWbI888gjy8/Np80jUbVhySoWlaSrkVutRrTXjnFyL7TkaLE5VYv5xJcqb2nu1jfYlvS64FWeqqAv+cyLYQiqC3Reei7GfF2NwpAifC5tRpr2Kb7//Ee6f324uovJ42BJSd/S5R0A8OrpHQvj973+P7du3Q6fT9argnBHOac9gtuJtXimI2ApPgQTnUitsQsWePYWIItwdWYiDEo2HX3ylDoNiJFSX2n1MGyqmRNZ1gUG0DMPXFqGkwXhTgktOTqYV24gRI6BQKNDR0QG7vQP1egv252uwPrMOohoDJidVYM0lNVZl1OK9vWX4eH8ZPj2mQPTFWiQVNGH5GRW4p1R+F8ovQnDNRhJDo/NAhOZ3L6wVDlZmgwjOBrFUAGJRJu4Ozsbznxdj4akaHC81osn6Nexff4/H1kigbv8KdJ/3D1S4updeoosoBrFCAOIvs9FvoPeyLTqefPJJbNmyBTabrUeC69evH8aMGYMXX3wRzz//fLeMHTsWL7zwAsrKylz2JifJKbE5fQ7OdYgmByNWi/FgVC4VscMLHONhIYgwCfqHSyCqMaCjowN1egtGrJG4zQZTaYiIIgyLFuGFzYUYEuXoXobmd6aJkmLUhiJoTdYbElxiYiLuuusu2rorkclwVmlG9KUGzDxSiYkHyzHpoBxBp1R4dUcJJh2UQ9tuhc3egZJ6I3TtVo/2szuvEdMOVXicz2azYd++fZg+fTr279+Pjo4OVFdX48CBA4iPjwePx8PevXtRUlLi5atSqYRMJkNpaSnkcjnUajW2bNmCkJAQVFZW/rIFt1es6f55m0NYBCer8zFBEB9/2FqC5BIDqo3/xQ8//uQlqsc/k4CXr6UVXNjFehALr/g4p5Dqnq1R4e0NGYiNjcWTTz7ZI+G9+eabKC8vv67gBg4cCLlcDrvdDpvN1i1Wq9VDyKmyFseqG8fjjJA8EOEFmHNUAXFtG1qMJOr0FhwqasZvN5eAiJR2ii5Kile2FaOjowOzjlQ4ehWOYxFFeOyzAuzNb0KjgURHBxVpduQ0YmishBKwU3Sx5VicSkUUujFcV8Ht27ePtr5YLBZUKhX2ysx4b28ZtgrqcVmhR5ZSj915jejo6EBGpQ5LTqnQbCRhtNiQW2PAPrEG4RdqsChVhcWpSkw7XIHP+fUe51QoFJg4cSIyMzMxY8YMpKenY9q0aQgPD8fGjRuxadMmrFq1Cu+//z6uXLniyrd//35MnToVa9euxerVq7FmzRpMmDABK1aswObNmzFu3DgsWrQICxcudLFy5Ura637TgrPb7egtPthX5tmlWZENIqhTZMNixJh0SIFjciPG7ZaD4FITIP85pKQVk/Pz8jYpph1Ref1+7dsfEHKhnhJwdxE1NB+PflYCu90OrVaLXbt24c03vR8ddGX48OGQSCQeZTx37pyX4BQKxQ3XldVmwytfFDoem2S7xmk7hPW06VuMJF7dKaOimHPmNzQPoeeqMThC1LmCJ7wQT20ogqLZRGunqK4ND68uoG6M4QWOyZQ8KFotsNvtrm0P3AXnzLt7926fYisrK4PdbsfMlAocKmxy3ICofFHpNdifr6Hq30TCbrcjpagJi04qsTO7HllKHRr0ZrRZbFh3RY3oizWuczY3NyM8PByffPIJ7HY7ZsyYgbfeegu7d+92Xc+mJup8qampYLPZCAoKglAoxPz58xEXFweTyQSz2YzS0lLMnz8fzc3NsNvtEIlESE9Ph1AohFAoRGZmJrZu3YolS5bcMk30muBImx2PxOSBCBN7THiwPpNg9vEqnK5sh+na/1xiWXJWTY3VlvAxamMhvvvBO7I5PxMPKTF6UxEAoMn6NQ5LDZieosKjsWLKxlIB1TX1KbocEOGFOFPW6uGzQCDA3LlzMWzYMJ+ie+aZZ9DS0tKt4MrLy2+4vgQqPdXtc47bomSYf6yy2zzV2nY8FJPvNh7LoYTmtBGci7vC83GpUtutnaNFTXh2Syme3VCAZ9dLMHJzGQ4UttIKLiYmBna7HTwej7Z+nn32WchkMpftsHNV2J7dANJmw7LTVWgxkrii1OHD/aWIOF+NVofg3Mmp1iNRokGLkQRfpccnh6l6sFgsWLx4MRYsWIC0tDSQJIlDhw5h6dKlyMrKgtFoxMSJEzFu3DgUFhaiqKgI69evR0JCAubOnYtz585h9uzZeO+99xAQEICPP/4YIpEI1dXV2Lx5s+tmeuzYMezduxdVVVVQqVQIDAy8/QUnrDJQU/TBuSCCBHhqrQQCtRVffvsDrYg2CpupyLdMiIFhuWiyfu1TcJGXGnD3UgFeiyulJlZmXgQx5xIeihRhaooKozYWUqJzm1ggoqSdhElARMk87pzu1NXVYd26dT5fI1mxYsUtF1xsRi31StLKbBAhebg/UoQarRl2ux0mixVrLqnxr4MqBJ2pdf1ut9uxNE0FIqrUbXLFbUIlshh/jStxpc1S6jA+WYm/7qYmKixWm+tYu8WKdtKGdosVJsffFovFS3BbtmzBoUOHaOvlnXfegUaj8ShXokSDRSeVsNvtiE6vgbi2DaWNRkw7XIFZRyogUBnQZrbCaLFi0UklTBYrUoqaEHSqCtlVetTpLfhgnwxSjRkmkwnvvvsuhEKhy77JZML27dtx4sQJNDQ0gMPhYO7cubh06RKEQiH27NkDkiSxbNkySKVSzJ07F6+++iqWLVuG48ePY8+ePVi2bBm2bt2KiooK1NbWQiAQYMqUKThx4gR27dqFdevW3TrBXW+ccbOszqihZtUcY7VHVuXjmy4ziu6fk+UmarJjhRAEl48stdVn2j2FehCBV0AE8fHcxkIEnVHjUpUFtq++AwAsPVdHRTrnVPprM0A8904n70eDWK3Efw6Wd1sGtVpN++Lqo48+Cq1WC5vNRis4uVx+w/U1PlHe2Z2MKMZbccWw2WwgrTZ8fKAMxGol1e1brcCzGwpRp2uHzWbDxQotVc90b1tEybAxUw2bzYa8Gj0GRuRTY7vIEhCrlVhwQtGtT+3t7V6Ce+GFF3DPPfd41UlAQAAMBoOXDVG1HpOTy2GykNib14BEiQY2mw0W0orsKj3mHlOAk6qEyUwi8kI1tvLrYDSTWJ1Ri4TcBhjNVkRcqMa0wxVos9iQkpKCCRMmICIiAmazGWFhYdi9ezfV5lavRlhYGJYvX47ExEQYjUZoNBpUVVVh5syZmDp1KhISEtDa2oqWlhYkJiZiwoQJkMlkqKysBI/Hw/Lly5GTk4PKykqcOnUKHA4Hq1evvmW66DXB/ftAqefUMycLF1RmnyLKa7SBWCagBLcwE1+IWnymzaiygJhzCUvPqvHjT95dzwPFBipaBudSPnR9FPBbNoi1NXgjrqRHZZkxY4ZXA8vMzLylgvvLzmJqFtWtO2mz2ZBfa6Aicoiosy5jy7Ezux42mw3Vre24N4SKil6CiyzG8ZIm2Gw2LDxZCSK23G28l4+BYblQ68w3JDg6/va3v/m00WgwY9JBOSqbTBCq9K4bwOVKLRr01LlnHK6A0WJFqrQZsRdrUKttR3ObBToTCZvNBkWzCf/aX4aS+jbYbDbk5ORg6tSpMBqNiIiIwKZNm7Br1y6EhoaCw+Fg6dKliI2NxaZNm/DFF18gMDAQX3zxBZYuXYqEhAQkJSVh586d2LVrF8rLqZvumTNncPr0aWRnZyMlJQV6vR4kSeLixYv49NNPb3/B/ZUn9WwECzOx4nydTxHVmb/C3SE5VBdxUSbmnKj2mba4pQNE4BVM8jG5UtTc4RBvNnU3H/OOZyN5bCyImDL8YVvPBKdUKjFw4EAPG0ePHr2lgnt9R5GH4AId0Yev0lGTGa5nckIQMXJszKyFzWZDjdaMe0OEPgRXguMlzbDZbJh3rKKL4MToH5yNmtb2ny240aNHo7i42Ked2UcqcaasFTXadoScrYLJYsUXgjrMTClHxPkqXKnUeqRvM1uRUdGKC/JWkFYrEnIbMOcoJUqj0Yi1a9di1qxZsFqtKC0tdUUko9Homvk1Go1obGyEVCrFxIkTIZfLUVFRgUWLFmHq1Kmw2WwQiUQ4duwYUlJScPr0aZw+fRqnTp3CyZMn0dLSgosXL+Lvf/87UlJSbn/BvR1X4nlX5vLxh21S0AQkAIDt6+/x6Kp8auzF5ePVnTKfgmsiv8ZdK4R4fK0E33zn3U21ffUdhsWKKVtRMhBvfOrZSPrdDWL+cfwhvvsulZO6ujrce++9HjZOnDjhU3AVFRXd2mtubkZjYyMaGxvR0NAAs9mMfx+Qg4gqcUWmd3jUzcBotuIPW4tArFY4VpeU4b4IMcoajbDZqEhBhIq9V5E4Hmavv0JFFIFKh35hYhDRZdSYdo0KM1K697OngiMIajWJSCSitbM6oxYbM9Vot5AIOVsFtc4MvlKHFzYX4pPDlZCoDTCYrchUaLFNWA+jmUT4+WqEnqtCq9GC3aIGBJ5UgSRJLFiwAPPmzYNMJoPNZkNtbS14PB54PB7WrFmD4OBgcDgcLFu2DGKxGDabDdOmTUNpaSlsNhvKysowefJkWK1W8Pl8HD9+HKdOnfLgxIkT0Ol0SElJAYfDuaW6IKxWK3qDd3glnnfd5ULcE5KDBgv9A+vvf/wJz28pplaJLBVgcJQI5i//R5v22rc/4OFVYhBBAiiNX9KmeSO+lHo8EFEEYspO70by4of4056aHpXl7NmzXvkzMjJoj/Xv39/1BjMdarUajz/+OIYMGYKhQ4fiwQcfRE5ODjbl6jsnTULzMDgyD3VaE6xWKxRNRkw6pMToz6V4e5ccF8tbXPZCzqo683WdNIkoxuvbi1xpT8ua8e7eCvxxhwwrzlahrZ10HdPo29Gob4fGYEaDvh1aE9mt4Hytl8zOzvYqc0qhBvOPKWC1WrHhSi2yq3RQNBkx/5gCGeUtEFXrkaXQQlKrR1CaEpcrW6FvJzH/aCVyq/UQ1+jxl3g5VqUWYPLkySgrK4NGo4HFYsGcOXPw8ssvQ6VSQSwW4/XXX8dTTz2F6dOno729HVu3bgWXywVJUmWVSCSYNm0aSJLE+fPnsXPnTsTFxXmQkJDgEtzKlStvqS56TXDzjym8V5gsysQhWZvPyPXXhDIQszNALLyCe0NzoGqjF9OPP/2El74oATH3Mo6WGWnTLDpd65g4yaUa4bCRng3krn54a250j8ry1ltveeR94IEHUFtbC6vVivz8fK9VFnv37vVp6/jx414NNT8/nxrDhhd0CiZahqVpim79qtO14+FYiWc9h+R5PBYgwgtwStrcrZ19eQ0Yvk6GR2PzMHyVGEPXlGCfhMpDJ7ipU6eCz+d7bb9AENR+JAKBwMN+odqA8Yly6IwWJEk02JPXAJ3Jgg1X1KjQtOFypRYHxI2o17UjKE2JxScVUDWbIGtog6rZCJK0IkmiwZTDldi6bQemTJmCJUuWwGw2Y/bs2VixYgXmzJmD2tpaiMVibNy4EY2Njbh06RI++ugjNDd3lr+oqAjTpk2jbkCnT2Pbtm1ISEhwwePxsHPnTjQ1NeHo0aO/HMHtzWv0Xve3MBMzjlX5FFxwej0+2iPHwWI96s1f4XuaVSbOzz/2VYCYlYGgc/Tjwn2FemrixNF4ib+v8GocAwcORHh4OLRaLW0ZioqK8MEHH3jle/vtt11p2travFarjB49GvX19V72dDqdx2Y5BEG9jOk8/9iN1PIrSiwi9AvLx35xI61vepMF7+wqdSwscIzLwiRYdroKQ2PyOnsXYQUY/lkBJLV6WjsClQ6Dox3LwELzQUQW4+7QXFRrLbSCe/fdd2E2m2G1WlFcXIwnnnjCq34eeughZGVluc7RajTjPwfLUNZoRE6VHpHnq2EhSSw4XomqFhNSipqwTaCG1WpFhaYNrUYLWo0WVGiM0JkoPzZcqcXitBqYLRZwOBxMmTIFJEli5syZ2LRpE8aNG4dVq1a5zukU48cffwyBQOCKcEKhEBMmTIDBYIBEIsGVK1cgFotd5OTk4MqVK2htbUViYiIWLVp0awVHkiR6A0VTGwaE5HiO45bw8dSGQq8Fx84P3TIuX5+5J6tBzMnAm7wy2uPFLR2ds54hjpUXw+m7R08//TQWLFiAHTt2YOvWreBwOHjzzTdpp78JgkBSUpJHWd03v3Hy/PPP4+TJk1Cr1airq0NaWhpeeeUVr3QzZ8502TmY30DdHIJzHMvQxCBC88E9qYS03oB2swVN+nakSpvx+23SzscIjsXZz22UgCRJBJ5QdE6QrKDelngoJh+bMtUobzRAo29HaUMbYi7W4L6ofCqyOpfWxZYj6JQSJEnCZDJ5CW7NmjUeZS8pKQGLxfIq1+DBg3Hp0iVXuvnHK3G0SAO11oToC9UgSRLHijTQGc04VKDBmowaXKpoRWZlK7YL67BVUA9OqhLVLSboTBawE2QoarJix44dmD17Nng8HsxmM1auXIlly5YhPT0dbW1tqKurw5kzZ1BXVweNRoPk5GTMmDED0dHRSElJwccff4wlS5aAx+Ohra3NNRO5cOFCrFq1CmazGSRJQqVSYfv27Zg4cSI2bdp0y3TRa4IjSRLPbZRQK9PdV/8vE6JMe7XHwvL1ibnSCGLeZTwULQb53++8jpPuEyfOhcuzk0AM6NmiZV+88847XuWsrq7G0KH0r/4MHTrU58qV++67D3K53MPWB3tlDrE4hBQiAhElxYCQHDy3UYL/WyN2LUTuXB9Kvf6UUdEKkiRRrzNh5NoCKvo510iGikFEluA34bkYsUpM3QyjpNTaUueay2gZfre5EK1tVKMzGo1egouIiPAqf2lpKUaOHOlVvkGDBuHixYsgSRLrLtci7FwVbTsJSlXgbzwppiaXY1yCFNxUJfQmC0iSRE2rCTHp1Zh+qAIkSeKTTz5BUlISjEYjysvLERkZCZIkUVtbix07dmDy5MmYPXs2Jk2ahB07dqCxsREtLS2YNGkSXn/9daSmpkKr1UKhUCA1NRXBwcH497//jYSEBMyZMwezZs3C2rVrkZaWBpVKBYVC4Rrz3faCW5yq9BzQO7qV2/Naf7bg9roefguQr7F7Hf8JwGtxMrd1lVSDIiZtBdF/wE2JbezYsVCr1bRlTUtLw4ABPbd71113ITk52ctOk74dr2wrAREr95wACRFRkcjjIbeQ+i2iCDuFnn6Jq7UY/lmRd/2H5FE23HseK7NBRJfiyfXFKKnTu2z0VHAkSUIul+OZZ57xKucDDzwAPp+PglY7/p4gRUZFKw4XNGLd5VrUaY1oNZrx9wQpxDU6mC0kxNU6fLBPhmmHyjHrSCU+2l+KGYcrXH6dP38eEyZMQFBQEObNm4c5c+Zg8eLFmDJlCiIjI1FQUACSJFFQUICoqChMnz4dgYGBiIqKws6dO/Hpp58iKCgIs2bNwuLFi7F7927U1dWBJEkYDAZkZWUhPj7elcaZ/hchuExFq+f6wJXZIBZn4cPEyp8tuItVFmqxc2AmtonoBbwwzTFx0mX1BTF9NwY87D326I6PPvoI9fX13ZY3LS3N5zbpXcdtKSkpPu00G9ox/mA5Na6KdD5ecRNfcA4lmhg5hq0qwsH8Blo7hbU6vLK9lHrbPqLIsc7S+RJrTucGutFl+FuCHJUag0d+o9GIUaNGefgeHh7u0+/y8nKv9ARB4P7778e59IvgFRowLUWJ+SeUmHCgFEGnFFhxWoVZKRUwWzrtNOhMOC1rxrmyFpQ1GLzOo9frUV5eDqVSCaVSCbFYDK1WS+uTRqNBQUEBTCYTSJKEVCqFVCqFRqO5bvvVaDQoLCz0afumBGexWNCb/NF9BbxjmdewWDHsX39/XVE1W79Gg4V+TaW05SrVRV2YiSkp3m8OAMC+IreJE7dIMTBGBoFcjdjYWNpBv5MHH3wQ//znP3HkyJEel1ehUGDBggW06zBHjBiBefPmQS6X98jW0SIN3kwow4DwPMd6UJlrLejwNRIsOKlCRaOhWxsGowlb+XV4ZXsp7gkTuSIiEV6AAWF5+PPOUuwWNdDmbWtr85qJXLlyZbfnq6iowHPPPUdbn2lpaTCY2mGxWFDTYkTUhWqEnFVB0dTWq23wdqLXBXe4oNFzZ+UV1ORJdr3vtZI6+zeYfkSFQUsF4JyupU3Tav8GA8NyQSzOwphNRbQzmgVNHdQYzn1LvsgSzD9a6fKvubkZFy5cwObNmxEdHY3Vq1fj888/x9mzZ1FVVXXT5W5sbASfz0dycjKSkpKQlZWFxsbG6+bTtrXjbGkzZh5VYv7RclgsFpQ2GHCooBFb+bWIy67DpQotGrTGG/ZJWm9AqrQZB8QNSJM1o7ShU6wzDsuxmd+AIrXe9ZvZbEZaWhoSExORnJyMxMREFBUVXfc8tbW1SEpKQlJSEpKTk5GcnIw9e/bg1KlTfm/w/qbXBWexWPDGjmLHi6iOhr/wCmKvNPoUXLXpv1R3cd5lfHCggjbNtW9+wBNrJSC4fNwTSv9A/ctvf8AjztUrjq7YXREFSC3R+L3i6UiWNOKJDaVUN9C6CgcAAAnlSURBVDxGDiKiEKJqXa+f92B+A4g11Hh7QJgYr2wrhvw6kZPh5iDMZjN6m/waHQZE5Hc+oOVk4Q1eqU/B/e+HH/HMxkIQgVfwu8+LfT6Pe3WnDASHD4KThdOV7V7HtfZvMGZjIYggtz1OQvPw2NoinC9t6vVy3yiZlS3U29fOZ2hRMvxzT0mvn/eVrYWds56RJXgkVoQmvcnv9fFrpE8EZzab8XlmDTVjFpwLYpkA94WLoO/41qfo3t1bDiLwCgZFiWC85rnE65vvf0RWLYmn1xVQb5AvzET0ZSpiKgxfYntuC/6xR069+dx1r8oV1JYD90UX4rCkwe8XoCuTEksdM4tCqhseUYSUgt7zc6eg1rFVg6N+YsoQca7K7/Xwa6XPBGc2mzHnSLljr40cEIuzkFZh8im45efrqGn/pQIo277EDz/+BHGDDSvPqTF6fSG15nKZ483uZQKw1hXgzztluGtFtmuXL8/t8twRgggrwN0RBYjPVvv9Irgjq9djYJjIsUqHmvZ/dHUBFBr9LT9XYY0Wg6LzHe8tCkGE5ePBKBFqWtr8Xg+/VvpUcGazGRMOyinRLeJjcVqNT8GdLDdRM4zLhXhvXwW1dtK5Zd4SfucuXyuzO3f64vLpd1/2Kbp8EBGF+Cyj2u8Xwp3wcyq3rQUdGwRtL0Gz3njLzlHZqMeojcWe/89DjByx6Ux0602I9vZ29CUmkwlzjlSACC3B89vktC+QdnzzPQ4U6zsnO7hZDpHdwDbpwTmd/5OqL6Jk1JZ0a2sx50gFmnTGPq0LX+iNJuqVHPd1ktEyvMWTobrJ8LPti6taMWqju30hiCgZfr+lEHqj/8v/a6bPBedk06UaPBAlQZUdsHz1PfhqEuuymvD+vgo8tib/5/3vOuGFICKLMTmpDNsFtd3Dr8UXfDU2ZNZBqdH7/YI4KahpxeDoAsfSuE7RjdpYjPSyppu2u1OoxkMxErfdvqgx7ZDYQhRUt/q93L92/Ca49vZ2ZFc2Y/bxKjy8Xg5iZQGIRVnU2CtIcHOCc7yg+dT6YuwV1fu9cn8uJ4sa0D+iwG1xMSWOu8PzMe9YJYprtT2yYzCacLy4EX/llVJR3zlmW+mcQCrA+VKN38t7J0CYTCb4m8ScOry6Q0Y9f4ou7bKlQHfdRsf231FSEJFSsNYXIOpCNepb9H4v063ioLgOAyOci5UdIgkRgYiS4b4IMf61vww7hWoIFc2oaNChodWAqiY98qtbkVLQAM6JSozZ4IiUkSWOJWJC6t/oUjz2WRHSSxv9Xs47hdtCcE7OyjT49GglRm0sQr/gXGq6OkpGEe2Gc4lTqBgjVkvw0YFy7Bc3QKM1+L0MvcF5WSOeXFdMrYl07srsXIjs3PovOBeDI0UYsSoPQ6JE6Lcyu3M5mPuLrSuzqWd9UTK8u0cGeb3W7+W7k7itBOdEZzBCVNWKvaI6hJ9TYVZKOaYkyzElSY5pSWVYekqB7QI1Lsqb0NDa5nd/+wKVRocpyeWOXoDMe7W/c4cy53/44bXgOdexUFmGUZuLwcup83uZ7kRuS8Ex+OZ8WRM+PFCOgeFiqvvtHJN1fRPA2d12zNTeHZaHv8TJEJetRtOvtCfwS4AwGo1g+OVRWNOK9Zdr8OE+6qXRR2LFuDc0GwNCczAgNAdDo/Pw200F+HBfGdZeqkGOstnvPjMYGcExMPQljOAYGPoQoq2tDQwMDH0DIzgGhj6EERwDQx/CCI6BoQ8hDAYDGBgY+gZGcA54bO9dptg8x3EeGwSb12NbQq73pqgEwQbPlYYHtsf3Th9c5/RCCO7ILjZGciF0P852/+7mO0GAzeViJDESXB71L5vd6eNIrtAtT1ffhOCO7FKWkZ7n4bE9bXRfjjsbRnAu3Bowj42RXKEP4RAgiJHgCh15aEQl5I68TiO+CcEJuRjJ5kIoNLhE5HFj4LG9hCDkjvS4UbhuKm6/Xd/X6wndzTabR/npc09OZ73duRB6vR4Meuj1PLBZXAj0euh5bLC4Agi4LLB5eugFXLDYPFdaAZcNrsCRh2CDp/f8W8BlgcUVeNp2puOxQbDZlFBZXAi6iMdTSM78AnBZLHAFAnBZBNhstss+5aMAXBYbPFc6vesYrT0eF1xu53mdtryiPJvXpYxd6skDyjd3e3oBFyxHWgGX5bDn7+vsXxjBufCMVu6C82yIbHB7IDjaLqXeKUYulbaLkHlsT7G4BCLgguW04xCph+C4XY7rO210Cp8SBIvl2fC7vTno9a7I1Xm8U1iEh+/uNwhnHbAcwu4s150OIzgX9BGOaqBscLkCt9/dBedLVPSNmBJS16hB4VNwej2cDZ3No/zzjlyUL96N3i3qOMdzPJpjNL7qeWwPAfvCJTa3G4OnTTeR9sDerxlGcC666VLyeOByWa7GcvNdSmeXj05w3t1BD8Hx2CBYLKqL1jXCOQXEZnt099z96OzSObuf3mk6fXWKhtvlhkJ4i5THBovN7oywPmGinF6vB6HT6cCgg04X79ml5PDB57DAjqd+Z3H40PE5YLHjweewweE787ARr/P8m89hUek9bDvTuX+P99mgO8dR8dDp+OCwCLDj+eCwWOBwukS4+HiwCRY4fMdxvg66eN9jQ9rxYjx1DmekdvrqXRYd4tkE2PFudcfngMXigO+zbt388vt19i+M4FzEg+1sNPFsl+B83a27E1w8zSMGglZwbufnc6gowY6n981dHGy2SwR8DgtsDscjwrA4fFcZelJ26sbiy7cu3+PZ3j7yOT2KcIzgGMG5QS84qiHywWF33sE9I1xXUTmjTRfb1xEcFUnibyAS0IiWjm7FQJef3jeCHe+wRZOHiXA9htBqtWDQQquNQ0CXBhkQEABWQABYAXHI4rDA4mQ50gUgzpXH+TdFFocFgsVBlpdt93RdvscFdObJ4oBFZ/MGuodEQJzPclK2WOBkdVcPnufXarWICyBA0Pyudfncgwjn85x3DozgHMQFEAiIc3yPCwCLk0X9xuGAFRAHrTYOHE4W4gJYCAhgdaZ1Jy7AR8PyLThKAF0ask87WlfjZnE4CCACwKHLr81yG4/1ENdNoouvTjEFxDn8Ihw3ni4+ed1kuvrDCE6rZQRHT1yAq0HHZTkFpwXVcBy/eTUwqpG7C5GKCnRRJ65TLL4aqqOhO+25bNEKwy06/4yG74qkLA6ynEKjsedK51Emp8jd7LtFPi+R3qEwgqPDEeGo7126mt1013qLuAC6Bkvf9cvisLx89OyS+ugW/oy66kmX0ekDbc/gDoJobW0FAwND38AIjoGhD2EEx8DQhxAtLS1gYGDoGwh/O8DAcCdB+NsBBoY7CcLfDjAw3EkQzc3NYGBg6BsYwTEw9CGM4BgY+hBGcAwMfcj/AyIjaOpTlbjhAAAAAElFTkSuQmCC;" parent="1" vertex="1">
          <mxGeometry x="190" y="520" width="220" height="97" as="geometry" />
        </mxCell>
        <mxCell id="nLoVxgrhlbPxmBjoQGfH-7" value="" style="shape=image;verticalLabelPosition=bottom;labelBackgroundColor=#ffffff;verticalAlign=top;aspect=fixed;imageAspect=0;image=data:image/png,iVBORw0KGgoAAAANSUhEUgAAARgAAABCCAYAAACM7MmpAAAa3UlEQVR4nO1d7VdU173uP+FafMe1/Oxi8Zm1WKybvtFL6Uva0kppb5tL2kLvbUubW0rahqYNwSQkJgqJYmIqYsUYk4CiICgggqIwMOALKsOggKLOoCiiPvfD+Bx/s2efmTlnzgG051lrr6XMzNn77Jdn/972b39pcfE+vOIVr3jFjfKliYkAvOIVr3jFjfKlR48e4tGjR1EFZgWyeFgtCE4G0NrSvNLN8OAhBh7BPAOoqa5Cbk72SjfDg0BvTzfCodBKN2PF4RHMM4CC/DwU5OetdDM8PIZ/2If0tDWoqa5a6aasODyCeQaQm5P9TBNMa0sz0tPWwD/sW+mmJIX6ulqkp63x1FYsA8Hcu30DoZkLuHr2GIIjhzHlb8fU6BFcGevE1bPHMD8XwP2FZ1+UDIdCKC4qRHAy4Piz09PWoLKiHL093aiprnKljkQIh0JoamxAZUW540RQkJ+H9LQ16O3pdvS5bqGmugrpaWtcVZHCodBToYY5TjAPFhcwc74Ho+21OLHr9+j5+Nc4vvM36N1VhhO7X0LfnnL0730Zp/a9goH9r+L0F69hsGUjRto3Y2KwGXOTQ7h/b3653n/ZwEnntNgcnAwgPW2NsQjT09agqbHB0Tok/MM+1FRXoay0xFDNcnOyjbrT09Y4TnB8t/q6WsfJi6RckJ+H9evWIiszI2UiY3vZP26MR1lpidEnqxmOEcytK2MY69yGzq0/w9H6F9C1/UV0f/SrpAlm6OBb8B3ahJH2zfB3vI+gvx0Loenl7o+kUVlRbjq4nLBEU2ND1OLzD/tSlmZYBxf3+nVrXVvgBG0L6WlrDLWsID8PWZkZhkpgte54hFFcVIjiosKod6usKLfV9uBkwCCTyoryKEJWi1USC4dCxniwL1gK8vNcUZXYfjc3EyeQMsHMX5/Amf2v4khtITre/4ljBDN6rB5nu3cg6G/DQnh2pfrHFFzUKiipZGVmAHiij3Nx+Id9xoJJhQiKiwpjiMVtggEiO776fO6m6WlrUFxUmPSzKH2ZSQzqYi0rLUn62fV1tQYB6vpIlqzMjKi6rILEW5CfZ4wLx7umusoV1Y4Es9phm2CWFu/gXNdHaH/vBziy5UeuEcy54ztxoW83pi/04uGDpRXuricwm4yczJRg5OTmhE9lJyZo81AXoZPG0N6e7phnSXKR78ZFakVkJ/nqQJuVTtJIBCkxqqUgP88gRLr2/cO+mL9ZQXAygPq6WtTX1caMR25ONnp7uo3iFKiiyjZQMivIz1s19ipbBDN/7SK6P/wl2t793rIRzPjJvZgYasFCaGal+wwAoiaRJAtKMNzJg5OBmB3Uyk6sg3/YZyriV1aUo6mxwRHROSszI8pmFA6FsH7dWuPZWZkZUWpMbk62JaNjcVGh6YLu7enWkkMy5EkpQqqhVCWDkwGDTGhzSXVspLRE1bG4qBCVFeUxKl6qY09UVpQjNyfbqFvtq9XiIrdMMFf8bTj09rdx+J3vLjvBXDy9H5cHm3FrdnzZO4oSQ011VZQYLPXg3p5uw6VKvds/7IuZxKlKGFIlUXdmVYJKBepE5aLn32Q/ZGVmoKy0BFmZGUnVTbVi/bq1KC4qjOmTcCiEgvw81FRXob6u1lA3kiEwLrj169ZqxyueqmRlbGjXaWpsMCX89evWorKi3JgXVtSa3p7uKFKl56iyojyh2pcqwfCdiosKTaUhtiErM8N0Q7NEMBMD+9Fak7/iBDMx3IobV0ZT6kArCIdCMZ4Snc1BVRk46SgmU7pJT4tY/+26GDnRdOqRlZ0+EdSJStWjprrKlGwTGTVJ1OoCUScxCSg3Jzvqu8mgsqI8aUJhe62OhU4y5TN7e7qNfmH/kZytqGB8RlZmhimh5OZko6y0xDCwO0UwKmHq+ke2yey9kiaYiVOfovXNvFVDMJOj7bg5fTalTkwWqrielZmByoryGGOnunBUFYPfkYNixyBrZntxQjoipMeIC1snCVByorqzft3auG0ws1GoYJ9TzSkuKjQM58m0XUoxxUWFhiTU2tKM+rpa413sSnq6sACpHpmRmhUblbrIaeNi30jVnJ4spwhGSlzr163VEox/2Ge8sxlBJ0UwU8OHcPCNb6w6gpk6exSh65dT6shkEJwMoKa6CjXVVfAP+wzRmHq2BHebpsYGY9Cp63PhSU8SFxm/Hw860ZhqAP+eaIHHA2NcpOdF2jFYJ71h7IP169ZGLax49XOhyGfpoLPBpOLurawoN+ql7SgrM8O2UVfdRKSES8mI8UJU76xKrRwD+TsebCU50hajzgmrGxfnqmwfxzgVr2RCggnPjOPAxq+vWoK5cuE4Fuav2+4Aq6ChU+7g/LuZGqVTp1QJQf1chZR8ZLwFd09Zv50JJhf0+nVrjXeUUNUUkgojeNmmRFB3+ETxRLk52YbBlHVY2aHZ17T1hEMhtLY0J91eHeQcoJRE6YKGV2mjsAMpjdC+FW9+padFjMiJNhjaBSVh066XqndTRVyCWbo7j7ZNzyckmDP7X8VYxwe4fOpTXB7Yj4nTnyFw5gsEBptx4fhO+Ns2u0owMxMDWLq/4GjHmEGKjtLWIUVuuYAkGajiuH/YZ4jticK+aXfxD/sMsmEcDheMFKmtql/hUMhoi3xHuXNyAhOsjwZeElw8qAZq6VKlBCUlAkoDNJbSvmLFS0bylGMhPUh2JD5KsexjShLsC74HvWt2kIhMKDnSiJwMwqFQzOYERI+lk8cP4hLMwL5XcKD6azEE01G7Af7D7+LaxX5Lld2cGkFgsBmnP/+HowQzfakfN66OOdYp8UBRknENcqeim1Yad8OhUEJ1wErdcoHS9hFvEvKMkpU65E7J30oDLyEnuqzTDNI9rPsu6y0uKkRZaQnq62oNb4Yas2IFbHtZaYnhwpdG91RjRqQBl5sFJRmSgB3IsaWto6y0xOhHO3YWKQlLIpHzimqfEwGbpgQzNzGIlte/EkUwR7f9HFf8bVhavJ1yxXOBQYwcfs8xgpmZOL1sqpKMpZCLjDshd1k1ziKViUyDmhmR0K6gq5efJ7PrqxNN/bvcKeUuGo9ggpOBGKOoGomqGi7VZ6ZytILue6lmrF+3NsbtbhfSuMp4GNpgUlHDzJBKuymdqiStU9nZ7xxzStF8r2RUP1OC6awtNAim7d3v4cLxBriRrmH20kkMH37XEYK5fsWPR48eOtY2HaQLlAZWGmkJeTxATjw7CIdCMW5X/l+SSGtLszHRKyvKjUhYnY5uBlXCkG1mXdz1KJmpYfa6xSSJj5NVVacYDcvny4VAsrFyDEFCkgolI6qVKmnagbRfUDViVK0Tx0JUOEGMOjWotaU5JjAwkXScCFqCCQ4dREvVl9Hy+lfQ1/gH3L017Wo+mIdL93Cxf0/KBHMt6MPC/DVH26aC0kG8oC8agrm72xGTpQdKDqokMk402mLMDsAl4w2QuzDFaGnAppiu1i3Jlm5q3bPLSkui6pftVqGLY7FrG6DtiEbNpsYG4wgCiSFVFUmVLGkXkRKMk6H7OnXVSZjNPbN5GA9agumoLURL1Zcx2l7rSsKpoK9V+/eZ8b6UCebGzDnXpRjgidfGbFflogJgTDgr0BlD5QKVrm5OXn7XqtFS6uWcOJJgZEwKEZwMGAtL2oKStY/Ek+roPZJqkl0pQ+fulqpMqtKFNCADTwz30uPlNMG4lfpDh9aW5qjUHFbPOcUQzPWJM2iueg7BoVZXMtoNNVej+bX/wFBztfbzW1fPpkQw16+OYfFu2Hb7EkE1tJrp14xypdGUkZY0/iVCb0831q9ba7g+dZ/JiW0nFJ3gs0iClFhIFjqRXHqymIKCUlsi8PlmBCMNu7Kf7SxStl0udumZSvVIhZmRXT3J7WQem6cpAVcMwQw1VyM4dNCVlJkkFxZTkpk+lxLBzN+cst0hiaDaKcwWFHcZszMqdnZN1R4jDxeyXXbsFIwx4bNUQuH/pXTCd5fnZGgHSjTxdZGoEmqum9yc7JQWqNwQcnOyY4irrLTEtmtWF73NZ7FfnSaCp5pgJs3IJUWCUcklEcncmBqxTTA3Zi/g4UN3Ujtw11PtFIQa1Wm2u1lFb0931HO5uBllbFU3jge+GyewdLXTO8KFqnvXZAlGJ+JTyuvt6TaIgXXSdpLswlK9VyRkXToHu+qGVBVVgpfEpqq4qcANu45bWJak32bkkohkpsY6bBPMoktpN9WJKdUdM31fLhI7eVRVoyePHahRxXYjRlXo4kN0qoDMasdjFMmA6pxuUSfyYMQ79yKhkohqG3JC/VLHRU1XoXoTk1Efk4GTm4nbcJ1gRtu2xCUXlvNdO2J++/DBfVw6vd8WwSzcdicmJt6EkoZXq4suHuQuLMV5ldCcSs2oIxiZZDo4GUgp2pMLT7dAGM3LYDi7u740FOv6hZ6SVDLOSZLSqVnyxLXVZFzxwPmw2vPxAi4TTNDXmhS5sOi8SwvhGVsEE74ZdLSjCAYa2Tnibxdc8DoPDQ/TOWlEDIdCrl4RojtY97RCZ4R3G3QUPA395xrBWCWXeCQzNdZpmWBuzbl/yno5sRJXkXjwkCpcIRi75GJGMnfDs7YI5sHSPdc6zoMHD4nhOMGkSi6mJDN/DXfnr+Pe7Tncu3MD9+7cxOLCLSzeDeH+3TDu35vH/cXbWFpcwNL9uxFyeeRsxLEHDx6swVGCcYpc4qlLHjx4eHrgKMEcqsl3lGA6tmxYzr7w4MGDwzAIZun+XdwOz+B2aBq3Q1cxH7qC+VtTCN+cQvjGJEI3ApEyN4HQ9UsIXbuE0PWJqIeFZ8YdI5lDNfkIzyz/7QEePHhwDgbB3F+8g7npMVy/OorrV/y4NjWCa8FhzE4OYXZyEDOBM5iZGMDM5VOYvnQS05f6cfXiiZjTy+GZcY9cPHjwAEAQzMOHDzAzcRozEwOYvkwC6cPV8RO4Mn4cVy70YOp8N6bOdSF49iiCY50IjnXg6nhvzEOd9iJ58LAa4R/2uRov9CwgygYze3kAU+e6MHXu2GMS6UBw9Agm/e2Y9LchMHIIgeFWTAwfxITvAC4PteDyYDNuTp+LebCTcTCrBcnetxOvOBFtW19X69qdx1YhI2KtBH6l0odOHYmwA/+wLyrBuRMX3D3LiCKYuSk/AiOHMDHcignfQYNALg9+gUtnPsel05/h4sCnuHhqH8ZPfYLxk3txob8JF/r2YPHOzZiHOxHJu5rAQ47ywCMD4OTpX56x4QljZt5n4upUIO/0SU9z96L7ZCDvj7aTVKuyojwmTaeUCmQfyiRRKyE58IiDTP3gEUx8RBFMeC6AiwP7cXHgU4NAxvubcKF/Dy70/QvnT+zG+d5dON+7C+eO78S5nn/ibM/HONu9A+Mn9+Lhg8WYCpIlGSfJ5cH9u449S0LeU6NCJjDSHeJjXthUJyTTMaZySM9JqImhrIISULy+I2ReYqfueLYKJnqXJ709mCOKYB4sLeL8icbHBNKAc8d3GgRytusjjHV9iLFj2zF6tB6jR7fB37kV/o4P4O+ow8iRWoz379FWkohknCSXOzevYPzEbseeR/BgodkBs0QEAzw5kZxqO2SelJU+jyLVBbvSWbIEAzxJ+GV22+BygImwPYJJjJg4mCl/O0aPRQhktHMr/J0fwN/xPkaO1GGkvRYj7Vsw3LYZw4ffhe/wJvgObcJQ69sYaq3B0MG3MOk7qK3I7FS17hS1Xdy5EUTf7pcwO97n2DMJpkI0QzIEw906VbWGOVNWC1I1dlohGCD6ZPdKgPYvj2ASI4ZgQrMXIwTS9l6ERA5tgu/QOxESORghkcEDb2KwZSPOtGzEmebXceaL13H689dw+vPXMPDZ3zHWuVV7DijZjHZ2cPvGJHp3/hbHd/7WsWdaQTIE40GPZAimsqJ81eQ/8QgmeWgjeUc7t2HwwBsREmmujhDIF1WPSeQfGPjs7xjY/ypOffo3nPq0Eqf2vYKT+/6Kk5/8BSf3/hn9e1/GSNtmLNy6GlNhopy8djB9vgfdH5eic+vPcHlgv2PPtYJUCaa3p9u4mD0Z6YTXfOjAHZ4LkvcZW0ktoP4mkbTAGyftIBmC4RUxOjADnlqCk4GoDHny7zqw33jhm5lUZkYw/C3zLycCx8jumLPPrfxepjW1IknbmUOACcHMBYYiBLL/bxES2fcKTu57JUIgn/wF/XtfRn/Ty+hv+hP69vwJfXv+iL5//REndv8fTux+CSca/4DeXb/Hyb0v4+rY0djGOmRzWVq8g+HWt9FR92N01Baia/uLeLC4PFfIqrBLMLweglehZGVmGMmz1QnOCSYTHcnP1Ez2uTnZhjGSF73z32aTROb95VWozMamEppTLttEBJPoJkPZZzJ7HG9xZNvMMsHJd+bdSfIqVXUcVIKRY8hnxLNJyStlKyvKjbbr6lL7mIZ9NX1qPJsc78ji9+QFdLz+mO/M+7vlb6WXkL9T77Y2g+lZpJH2LehvqnhMIOWxBNL4e/TuKkPvrt/heENENTm+8zfo+ef/ouef/4Oej3+N7o9L0b2jBKf2/hkhTayMXSwt3sGl/iYc2/YC2jcXoP29H6DtvR/gYn+TY3VYhR2C4eVcMj6GE0qXoZ+LRUcwtO+oeXKZ0Y13V/PZZjE5/K0kk+KiQsNALf/OCae7qM0KJMEw4z8LiTdRvxYXFUbd5SO9TMVFhcYVM+oC1F31K9+PJKu2V2YTlLdO+od9UXNBJXLeYS1d7bwaRBfjw3fXkSfbT6Iy867Jz2UIhZwrvECP92rzO+qtCOyvZBOPmxJMeGYcvbsiJHK8gSQSTSA9H5eie0eERLo/+hW6Pvoluj78Bbo+fBHHtr+IY/XFOFb/3zi67QUc3fZznNr3V0yf67YtZdwNz+Ji3x4cff+naNv0PA5veh6H3/kuDr/zHXR/+Atbz3QKdgiG8THqwpU7qDqADLIzcwtzgpgteO64ZpNZd1k7s/jpSK8gP8+ID3GCYMpKS6LUGXl5Wbx+5YKReXCp2nHh6FBcVGgsPrWv5Tio7ZX3UauQfay2makzZX3qe+r6R465SpKyPeqYUiVSb+bk7/junIuUaPgeur6TkqHu/SXinqa+fPITDYFESOTY9hdxbPtjAql/wSCRo1t/hs6t/4XOD36Kzg9+go73f4KO94siakxdIY7UbsCR2g3wHXgLk4MtuDnlx9LiHW3j7oZnMTveh7NHt6O34Xc49Pa3I6XmW49LPlrf+iZa3/ombgSH476o27BDMJQq1O/H2yHkpe2JJqNuwXPCcWeS6gInFKUG9RpUXTb7RPUlg0QqEu9NTtSvjJNR1R2zRUDVwOyeZV47oqqGiYy88QhGN+YcUx2Zyc/jjbmUqNTPZAJ09TOz58obGdhelrLSkqjgyHiISzAPFu/g9P5Xo6SQJwQSIZFoAvkxjtQ+JpEtP8KRLT9C++YfPlZjqMp8H23vfi9SFCnk8NvfeUwikkBIInlofTMPB9/8z0h54xuPSy4uHN8Z9yWXA054kRjE5SbBmLVVd02IWZHGweUgGCAi5ifTr/V1tVFqSLx4GbttT4VgVNCe4hbBSGnDCsGwHyndJDsfVCTMB3P7+gS6PvolOuqKFALZIAjkhwqBfF9PIO98R5FC8qOkkCgSeUOQyMZcHNiYiwMbv44D1V/HgeqvPS5fxelPX4k7gMuFVAiGejt/uxwEw8nD78jnWrm8bbkIhndAJQNKHZTSzJ5JdWwlCIabCaUstwiGNhMSrpxPTBivG/Oa6ipDlUsl7CKphFPz1y7j2LafG8ZUKYUc3vQ8Dm/6rkEih7RSiIZAFCnkIAlkYzSBHKj+Klpe/8rj8uVIqYqU7g9fxNK927Zf3knYIRjVeyF1X7cJhkZbKcFwQlmJkl0uglFB9UUHee2utMfoniGvwLXyznYJhh4dOeZuqkhARC2T0d90OcvbSVXylgSTyuHSpDPaXfUfUaSQb+mlkDelFKISiF4KaXldIZEqlufQzPLac1FBel3bi1cNuQD2jby0a6i2ELcIhhOcE471qu5Qs8Wrm4jLTTAkBZ0bmHdT8ZmSwFUCUQ3mZm5l3TvbJZjcnOwY+5fbBCP7hd8h2VRWlGuJlfE1/K5ZzFUiqdJSysz5axdxZHNBYjVmo10CeS6pg5GrjVyAaFJI5kxOcDIQFY8gicRNgmlqbDB2UHVnys3JjtLX6eLmPUk0Dss4ieUmGHnQUxczQpWD7yrtMWr76HmSBsvKinJj0chredV3tkMwJHFVqnKbYHiSnyphMqBqJdsr79mmgTw9LdarJWE5J294dhw9O0riqDHJSyF2ipMRwE6BcQwyCCmZyFf5m9ycbMPDIAmGkaGyrniLTC54tR102TJ2Rf2tNDjKnU4W1WVZWVFufD+Ry1IHVYooyNdfDavG8ajkSBereoNiVmZGVH/pXK7FRYVRJKMWlfRo9DR7Z7kwZX29Pd1RcUg8NMkYHY65GkWcaMwrK8qjpA3Zf/LubKuR1vV1tVF2Gl1J9ExbSb+X7s1jtL3WFQKJl0Zz5tzqOeAHRJ8k1t2pTInADNIWIndQ9e+c4LpL29UcM6pngJ/LiS1jHVS0tjQbi5JxIGqeG0J38b0uGtXs3ePdQ60SLfuTdcp3liTNf9OVqqtDR05UF/jOJGJJ7jJdhPo8koKMuJXtZp+ogZB8F5KMunB1i1uOufSWqe0BnpCaWT+zr83mKSPHa6qrDBJkPFQyhJXSrQJzgUF0bNngGqlIqWW1qUQADANdvJJIR21qbDAMavyu2b3JunM1vT3dcVUWitesw8oF9fxdU2ODVqowe+dkjKWJ+i1RkXWY9Um88VERDoWMsaiprjK9zzreOMf7nO2V9cgxpzqmjrnZO3AcE807xrNQGpHELTcPlbQT9U2yBnFHri0J+lpdIZqh5mrMBQaTehEPEThhE/Hw7EB6KlVyoXucWRLVKG0n4Oi9SHOBQQw1V6d0dUnHlg0437UDC6Fpx1/23wEewXiQkCpZTXVVwgO0TsOVu6mBCNmc79qBU5/8BV3bi03tKicafoeh5moEfa0eqTgAj2A8EPRa0egcD7T7OQ3XCMbDykASjB2vjodnB3TDUyUyA6Oe3Uik7hHMMwTq0WrW+1RCvT083aBXkN4leYaIYRJqDhgn4RHMM4R4XhcP/96QRxLoCVqOeeERjAcPHlyDRzAePHhwDR7BePDgwTV4BOPBgwfX8P9mz7slPdiz2AAAAABJRU5ErkJggg==;" parent="1" vertex="1">
          <mxGeometry x="530" y="490" width="280" height="66" as="geometry" />
        </mxCell>
        <mxCell id="nLoVxgrhlbPxmBjoQGfH-8" value="" style="shape=image;verticalLabelPosition=bottom;labelBackgroundColor=#ffffff;verticalAlign=top;aspect=fixed;imageAspect=0;image=data:image/png,iVBORw0KGgoAAAANSUhEUgAAAaAAAABUCAYAAADEQuPiAAAT/klEQVR4nO2dv2scyRLH/RdcZnDi4MlP2YEE4iILoVSWUShu2XADnaJNhDCcMiEbBBdIeliPC+QNZAxGOsRxONj1JnYgWWDw+bG73N1zYEYOziA0/0G/QNS82t7qnu6ZnumeVQUfuJP3R09vd327qqurb8VxLBiGYRimbG75bgDDMAxzM2EBYhiGYbzAAsQwDMN4gQWIYRiG8QILEMMwDOMFFiCGYRjGCyxADMMwjBdYgBiGYRgvsAAxDMMwXmABYhiGYbzAAsQwDMN4gQWIYRiG8QILEMMwDOMFFiCGYRjGC8EK0OcvX8WTZ2/Eo73XwfD5y1fv/cIwDDMuBClAb99/Encf7olb3z0Oim+//5lFiGEYxhHBCdDb95/EN/M/eRcbFiGGYZhiCUqAQhcfFiGGYRh3BCNAVREfFiGGYRg3BCFANuLz7fc/i/uNVhA82nvtve8YhmGqincBshGfpy/fee8whmEYxg1eBSiL+Dx/9SG4UN04hOMuLy+9t4FhmJuFNwHKIj5PX77zLjbjKEIL83Pi3p3bYmpyQgz6Pe/tYRjmZuBFgMZNfKosQvu7O+LendsJ21ub3tvEMMzNoHQBGlfxqaoIbW9tDgnQ8tKi9zYxDHMzKFWAxl18sAj5/mFNYQ+IYRhflCZARYrPN/M/ieevPnjvzCoiC1BzdUVcRJH3djF+OT875XFQEhdRJLqdtvd2+KAUASpafN6+/yTi+DpDzvfZIMyD5ovgw3GzM9NDAgQ06rVgJ8X52alo1GtidmaaPbYCOGwdiHt3bovZmWkWoQK5iCJx2DoYmoONek0ctg68tWnQ74nzs9PSvq9wASpLfH54/Jv30JsqHBeKCH39+2+xsb4mNtbXxPbWZpL9pmJqcsJ7mymWlxaTNi7Mz3lvT14G/Z7odtrBGHu8Lzg7M12qQRpXzs9ORbfTFttbm2J7a1M0V1fE1OSEcu75EKHzs9OkTTYLu8PWgViYn8vU5kIFqCzxqf34i3ehqYII/efj71rBkZmdmRZXV1fe2y3TXF0Zaif21Ab9njg5Pkom+OzMdCGTedDvidmZadGo13IJx6DfSyZ9KAkgcmLK1D//MfTvsHBZXlr0JpoXUTTkBYd6fKDbaWuFRkWjXiu9P/GCdHZm2vh9+Plsf4fCBCiL+Ji+p0riE5II/fXnn8YToLm64rWtKs7PTpVhQx2uw4mNei357I31tcyfA+EuX94crMzx3wb93kj/YS/I90o9jkf3LkNNoNlYX7Meqz76VV7U3btzO9Pz2c6FQgSIxSdcETo5PjJake3v7nhtZxxfG8ftrU3RqNdSw4VlCyoWINOV36DfG3kdnvg+VvHY+8LeDA5zyntBIRj987NT8ncOzRPC/WiKqffhCkp8TIRE9pRthAtwLkChic/dh3tcNBQBISqTiXByfOSljRdRlGniqpianHDuAWHPxWTFCqGYqcmJIWOOvTn4fcoMa6lEGvc/DgfJnofPDXNqURKa555lHJfVpyfHR2Q0YWF+TjkGz89Oxcb6mnIRaxtGdipAoYkP9jievnxndO02Tuc2vaob2vXxj8jo9U+evfEyGV79+qu14S568E9NTowInWplpWN5aTHZ4MWTqrm6UtiqGBsX3cSTnwcMzEUUjbRzanKi1L0g1eoV9yH+ffAz+zb23U6bNJ7y63wmd8i//cL8nNjf3UnS3CkRLaq9OAlCFcaempwYCrdCpl6jXjOKnNgmrDgToJDFJ2v7ikyIqP34S+mT4d//2g1CgOSNSznkQBkWeF1zdUVsb22KbqctBv1eEj7AxhAmfdGGnDIu8uSlVsAgujiMd9g6GPIuyhoTsiECw6gyiPh5QsjaowwpLDi6nXbS3uWlRS8evTxGcJ9dRBHZftdtGPR7xiFs2fuiwnOm7zXBiQCFLj552jlOIkR5QAvzc2J5aVEsLy2K2Znp5L/3d3cK8xyoiScP3kG/NxLuadRr4uT4SGxvbSbtpSYuGPZBvycOWweFhDRUq1cs2iohpeh22slkLzMZQe7jbqc9EqLFRhOeOZT0d0rgF+bnyM1/OfxZBrIANeo1sbG+phUE120wGYdUJELVv67EJ44dCFBVxCdPe8dJhC6iSHz671/iIoqSKxiwUQcjX/RElfdQqI1XKhsrbQLg1TsIVNaU1v3dnaG+AEGTExAw2Osy3Wu7d+c66QPaW/bGvhxWk40jLEyw4Ps4IwaLEhirWdKbyz5cTWXr6SgiASFNgHQHjtOy+PLur+YSoKqJT552j4MIwQReXlpMdcnLWOHKHow8kFXuP5y/OTk+Et1Oe8hboyZ8llCcjfeiW0XiMJApZQjQRRSJ5upKppT2sow5jNU8bfQtQLbjqIh9NXzWjALE57B1IKYmJ4Yy4FT7sbCXlbdtmQWoquKTp/1VFiF8ytmUoicnFf6JYzq8hV8LYUL87zBpqAmTJfRic34DToFT35Elo6+MQ4hZz6dgiqyQkGUBkIaPg7PUc8ACivKkizr+oDs/d3J8NDIeYEEnz6eN9TWnv3smAaq6+OR5jqqKkBzywsaTCmeUEWLBQgMiARUGKGOnM5oQRgChmpqcGJrgth5dmmiAB0a9F9oJlRiotqZ5oJBwARlTrvs+b5p70V5alkxInfD4qmsoCxD2cKg5WaRAysklOqC/5N9B148XUSQ21tfE8tKi8Zi1FqBxEZ88z1NFEVKtxGDgYGNdxLkZHednp8mKS7VvAq/DBt0mNGMbW1dlr22sr40kZ0AtNzg0m9aWtGelAEE9bB04SQ4x9YA21teS0Izq34swmjZ9Y2pMfUBlSqrGSZ6KGqaY9hkIiGw3qL7sdtojZ4OmJieMEhOsBOjjH9FYiQ9wU0TIZNUrnwMom/Oz0xHvANKb93d3xP7uTmLsbQTIdh8Ie1Ib62sj3g4+HyELnc67wUYmLTav+43yGn3YA8IiQrUb9tl07Sxi30JV6UAGBDlNsHxdM2LqyZVRedw0rKnL5JydmRYnx0dJ4lLaHEyzJVYC9O33PxsZUKg8YGPYf3vTF3FsXtXadVkbm7bCYdVHe6+NRejjH9eD636jZfSeHx7/5nwAmqwqqdAKGHxwr5urK4We1na5+s0qQCoG/Z7yUB6I90UUKQ0PFM808ZR05Fkty5WZIassa1uKStfXnbinhM/EsIawB0SNiTIWfabzCo+tvHtxzgTo7ftPRobz1nePE2EwNdD3G63ke0wNdBHldWy/+/OXr8Z9AgL7/NUHY9HyMQjhDBCVjktNHFPjA0YP0mgb9Zpyw1W1XyUbE6h6nfY6IE+/yWHKtL4wXcFjQORNX2v7DN1O22lGGVC0UVf1Je4D0/2NssNxKmFv1Gtie2tzKHkFFgXN1ZVkfrjsW2pRBGKDxzbu1zwCZOIZW3lAdx/uGRlPKDVjamxvfffY+l6fB80XTgfK5y9fjZ8PPKAnz95Ye0APmi+M3lNEGA4fdnSFSdaO7jspT4oywhBqwUkL3U47VSThYGXe+LpOGORyP9SeCYTyGvVakgYP2XzyvpJJxmIWQ2oi7LKRBEOpu7+m6BW8qt147Jk+W5nhZdWYgcXQRRQNXR2i6ltXFRxkMcRRAdxW/H1ZzjEtLy0aR0isBKjovRLwnMreK/n85atxeDHP3papYOUNL+LwStYDe6akrcTTVqbU++UbIhv12lB5lTSjeX52muDKmMiew9TkxMi+Aj5MKoNr1cE+FgDxdDzxVWmzppu7qt/CpCTLwvwc6dnKJZSo39K1N6QTY7yokI3r/u7OyLOWdXjWJPXedk66GMtym2CuyEKJv8smVJxln62ULDhTEcKGtywRKkt8svSBDTYHHnHJHdjTAcMIxvCwdTBkJEHU5M9KW4mnCYb8fnnFRQkUZUSLvkIcNrqhb+Dv8DdXIi8bmsPWQSJcLvbdIHlCte+Tlq6eFlp0eQGgiVcD4Sr8N1jZy2n+ZdSCMxV5W1yMbZMxKou0/B44GkB9Vpa9wMLPAUG4KkQRGhfxiWPaKGOjAitwyjjIHpOp8TdJbdYVFk0TH8po6OrIgWEtY6P5/OzU6ZURLg2NKdSCQufRwjkPk+fAVZ9t25W23xZSH8pjPa/4LMzPkZ5v3mfKkoAgjw88NkZuzc3oXRZeCSGvIS5KhMZJfCgjD7F7MACQxgyZbAvzc8rBrhMYvJ9jOinwpNxYXyPfJ4uPvK8Cl9NBe+UzB2UYIKhgreszSLLIYnzKrK9GeRfwe8NYaa6uJF5yHg9PFdJTkWefsszL3HA/2SR3QOUMlfGn5nPeRZVJn+J7gKhwK15MyGM8a5ZpKbXgQhOhcRKfOB71frCXk2c1qTLkg37PamULackqIySHdajBbONtFLHRnBYOkq9ioMRlY31Nm+lWVg24vCngWbA5K0S9H+996TyNsqp0Zz3DBWIsi4zcbvl9eX9zXVvhaAAWOVlgZGFXhT1tKa0adigiNG7iIw9W2YiZGG7q8GRZl41RB0+pWL08gVQb9EV5P6p+VO15yK/D7aLErIz6b1Rf5wEOsJqMMdPfRVWxQ15U6ATAZeaYiixebqNeExdRRO4T4cWZ3Ad5z7BRbYVST1Q/UVXo0+yKNwGK4+qI0DiKTxzHQ2Ep2VVPmxTYeMplboqcwKqBrLoOeNDvJYkSMInlMFyRKbaDfi8JX+JrK+L4OjQnfzeVhq0KZZVxQFJXTsdkgUIJPk6D1u0N2SYlYOMMRjvtdSqDX9QhWUoopyYnkr1U3QJDXoDIRwRcChCVNJL2e8hzkhqfQQlQHIcvQuMqPnH8/7L1qlWfKnzUXF1J0oCpGHHRZyaoiap7BrwnId9NU3b5ILiNFYy6HEKxqTZdVA0wyHjL6/VQIaN7d0a9msPWQfK75E1CwPuXFKb7RCAKRQiRfI/SoN8jPUIcTZDTyqkK3dRFjFnHqLxwSPssylZQZ/2CCcFh3r7/JB7tvU4FDqrG8fVhVZP3QDZdHF+fpzF5D4jCOIuPCVk2dYv2gCgDrRvEKuMCB1QhA66IEkFggOE7VAYdv8fmGgbXxhHXeUszzCfHR0OXvKnEkcqi8lFbTZV9qPtd8PhyXV0Axgf0kWzwdeKjmmPy3MiyN0iF+dJS0VWhOqq/gkhCqAJPX74zrnAA4vP81YexER+bUhqwUV7kddy6++l14oENIs7sowytq7pvgGnoinqvbLghFAf/X8SmeVqSgcpjlI0nNpCuDE4eVHc9gVGlUvR14utKiFRepk587t2h98WohAHbRdXJ8RE5ZlX7uoN+T1n9XeWFyiIZlADZnBMKhTxVrkMVH5gcJsazrD0flYFIC0PhyXjYOkj1LlwlI6hi/Y16bUj8dEICxkm+swgbQ6iPl9copp33UJXNoc514D6URa2MQ52AKnmCMpC2V1xAGNq2TRAmVC1OsGjI4qNLlqFK39gsBnX3fsljK81T1glfcHtAMlUSoXEVHwAXAe122snV3PKAc3niPu/kkDE1KvhZXPWd/Nm4rWmTlcooKrLduuwslcBRz4hXy/IzuPZ+IMQJRtkk3Kk7W5Ql5GxzaZ0urRnK28BrKc9HNVZcZEeqklzkZ0ur2JA2DoMXoDiuhgiNu/jgAQdCtLG+lhqqKMIjor7TNAQlv3dhfm4ojVR3ajsPOgHC3wl/g4OJcN7HNvMsb7uprKflpUWlsVYtCsBbo84NuVygZElnNgmfZU28MDH4qhCnHOJS1bGT267a17JNrqG8P9Vn6BZGJn1QCQGK47BF6CaIj81muG4yuSDPd0C5IFy+Xv53/NkmVbpNvzetr6CCQd67U0w8QRMgGw1uUFU9VxZPwXW1BhuBtqm6nefAbVrIi/pcqjCt6tngkr+0e6FsQ4OUmJvsq8riYzIGKyNAcRyeCN19uGddo66K4gMTwdbA4I1+l+AJ6WK/AyOv/ly130RUYJKb3kmj6veiEj8AqHys837TPAdXwg6YJg1kzV6zKdJrOnZwQVc5ZJ3l+3RjygZZgNIWePICxGZBSJ0VyvL7j30WnI5xF584HjXMUCOOMjzdTrvQ1FqcOeOyYoFpemsWbK+ToF4zOzMtpiYnRow7VCUv6pwKJm0hgkM1OnEqu12uFipp14q7eEZXd21lDXHicKqpmBy2DjKJOyWyWdpcqgB9/vJVPGi+EPcbLe+YektVFh+AuhuHMpL4vhp86NNXdWHMyfEReYWE6kyIy++WU051Vz/g8v9phynL7Ls08cFZbSoRLepZ4MJAuJwP7kty/T1p3ix1KNQU1V4anFUzqZSd98oISI4oo6YgtYjN8jmle0ChhePGUXygbD422JgsJVnKGNS2A161Yi7i+yHkYhKe8XFAU0da4Ux5xU0ZyjLTrovuC3z9CBSIzZtYocoqk/tNtefjo5pHHijBzfI5XkJwVRChqoqPbpDnwcfBQ4zuAGve0MVNgMq0Ut2uio2L7VUKN53zs9PkqAP17zg5AgqCqhJrQkZe1FRuDyhkEaqy+MSx/ZkZE/EJYYKoyovIZy8YNXCIN23f6fzstJKGkSkP2L/L4715TUIIUYSqLj5XV1fKcAuE4CDsAPs9+Nrt0Fe7cAIdDtX6bg/D3GTy2owbnQWn48mzN5UTH+Dq6kpcXl6Ky8tLcXV15b09DMMwFMEIkGmF6zIwzZILUXwYhmGqQjACFGI4jsWHYRimOIIRoDiujgix+DAMw+QnKAGK4/BFiMWHYRjGDcEJUByHK0IsPgzDMO4IUoDi+FqEfJfrwTzae83iwzAM45BgBYhhGIYZb1iAGIZhGC+wADEMwzBeYAFiGIZhvMACxDAMw3iBBYhhGIbxAgsQwzAM4wUWIIZhGMYLLEAMwzCMF1iAGIZhGC/8D4q2A/IoCNSRAAAAAElFTkSuQmCC;" parent="1" vertex="1">
          <mxGeometry x="442" y="570" width="416" height="84" as="geometry" />
        </mxCell>
        <mxCell id="cp7yZlZRyXQYfkks4cQm-1" value="getRSVAndKD&lt;br&gt;&lt;div&gt;(計算KD值)&lt;/div&gt;" style="rounded=0;whiteSpace=wrap;html=1;" vertex="1" parent="1">
          <mxGeometry x="570" y="280" width="140" height="60" as="geometry" />
        </mxCell>
        <mxCell id="cp7yZlZRyXQYfkks4cQm-2" value="ReadDividend&lt;br&gt;&lt;div&gt;(讀取股利紀錄)&lt;/div&gt;" style="rounded=0;whiteSpace=wrap;html=1;" vertex="1" parent="1">
          <mxGeometry x="210" y="280" width="140" height="60" as="geometry" />
        </mxCell>
        <mxCell id="cp7yZlZRyXQYfkks4cQm-3" value="ReadEPS&lt;br&gt;&lt;div&gt;(讀取EPS紀錄)&lt;/div&gt;" style="rounded=0;whiteSpace=wrap;html=1;" vertex="1" parent="1">
          <mxGeometry x="210" y="350" width="140" height="60" as="geometry" />
        </mxCell>
        <mxCell id="cp7yZlZRyXQYfkks4cQm-4" value="ReadOperatingIncomes&lt;br&gt;&lt;div&gt;(讀取營收紀錄)&lt;/div&gt;" style="rounded=0;whiteSpace=wrap;html=1;" vertex="1" parent="1">
          <mxGeometry x="360" y="280" width="140" height="60" as="geometry" />
        </mxCell>
        <mxCell id="cp7yZlZRyXQYfkks4cQm-5" value="ReadProfit&lt;br&gt;&lt;div&gt;(讀取損益表)&lt;/div&gt;" style="rounded=0;whiteSpace=wrap;html=1;" vertex="1" parent="1">
          <mxGeometry x="360" y="350" width="140" height="60" as="geometry" />
        </mxCell>
        <mxCell id="cp7yZlZRyXQYfkks4cQm-6" value="&lt;div&gt;ReadTpexStockPrice&lt;/div&gt;&lt;div&gt;(讀取上櫃股票價格)&lt;br&gt;&lt;/div&gt;" style="rounded=0;whiteSpace=wrap;html=1;" vertex="1" parent="1">
          <mxGeometry x="570" y="350" width="140" height="60" as="geometry" />
        </mxCell>
        <mxCell id="cp7yZlZRyXQYfkks4cQm-7" value="&lt;div&gt;ReadTwesStockPrice&lt;/div&gt;&lt;div&gt;(讀取上市股票價格)&lt;br&gt;&lt;/div&gt;" style="rounded=0;whiteSpace=wrap;html=1;" vertex="1" parent="1">
          <mxGeometry x="722" y="350" width="140" height="60" as="geometry" />
        </mxCell>
        <mxCell id="cp7yZlZRyXQYfkks4cQm-8" value="" style="rounded=0;whiteSpace=wrap;html=1;fillColor=none;dashed=1;strokeWidth=3;" vertex="1" parent="1">
          <mxGeometry x="200" y="270" width="310" height="150" as="geometry" />
        </mxCell>
      </root>
    </mxGraphModel>
  </diagram>
</mxfile>
